<?xml version="1.0" encoding="utf-8"?>
<!-- Generator: Adobe Illustrator 18.1.0, SVG Export Plug-In . SVG Version: 6.00 Build 0)  -->
<!DOCTYPE svg PUBLIC "-//W3C//DTD SVG 1.1//EN" "http://www.w3.org/Graphics/SVG/1.1/DTD/svg11.dtd">
<svg version="1.1" id="Layer_1" xmlns="http://www.w3.org/2000/svg" xmlns:xlink="http://www.w3.org/1999/xlink" x="0px" y="0px"
	 viewBox="0 0 56 44" enable-background="new 0 0 56 44" xml:space="preserve">
<g id="_x38_97-graduation-cap_x40_2x.png">
	<g>
		<path d="M56,11c0-0.4-0.3-0.8-0.7-0.9l0,0l-27-10l0,0C28.2,0,28.1,0,28,0c-0.1,0-0.2,0-0.3,0.1l0,0l-27,10l0,0
			C0.3,10.2,0,10.6,0,11s0.3,0.8,0.7,0.9l0,0l5.1,1.9c-0.9,1.5-1.9,3.7-2.5,6.3C2,20.4,1,21.6,1,23c0,1.3,0.8,2.4,1.9,2.8
			c-0.4,8.1-2.4,15.5-2.8,16.8c0,0,0,0,0,0C0,42.8,0,42.9,0,42.9l0,0c0,0,0,0.1,0,0.1c0,0.6,0.4,1,1,1c0.5,0,0.9-0.4,1-0.9l0,0
			c0,0,1.4-5.3,2.3-11.5L6,43.1l0,0C6.1,43.6,6.5,44,7,44c0.6,0,1-0.4,1-1c0-0.1,0-0.1,0-0.1l0,0L5.4,25.6C6.3,25.1,7,24.1,7,23
			c0-1.2-0.7-2.2-1.7-2.7c0.5-2.2,1.4-4.3,2.2-5.8l5.4,2L11,34.9l0,0c0,0,0,0.1,0,0.1c0,0.6,0.4,1,1,1c0.2,0,0.3,0,0.4-0.1l0,0
			l7.4-3.7l7.5,5.6l0,0c0.2,0.1,0.4,0.2,0.6,0.2c0.2,0,0.4-0.1,0.6-0.2l0,0l7.5-5.6l7.4,3.7l0,0C43.7,36,43.8,36,44,36
			c0.6,0,1-0.4,1-1c0,0,0-0.1,0-0.1l0,0l-1.9-18.4l12.3-4.6l0,0C55.7,11.8,56,11.4,56,11z M4,24c-0.6,0-1-0.4-1-1c0-0.6,0.4-1,1-1
			c0.6,0,1,0.4,1,1C5,23.6,4.6,24,4,24z M36.4,30.1L36.4,30.1C36.3,30,36.2,30,36,30c-0.2,0-0.4,0.1-0.6,0.2l0,0L28,35.7l-7.4-5.5
			l0,0C20.4,30.1,20.2,30,20,30c-0.2,0-0.3,0-0.4,0.1l0,0l-6.4,3.2l1.7-16.1l12.8,4.7l0,0c0.1,0,0.2,0.1,0.3,0.1
			c0.1,0,0.2,0,0.3-0.1l0,0l12.8-4.7l1.7,16.1L36.4,30.1z M28,19.9L3.9,11L28,2.1L52.1,11L28,19.9z"/>
	</g>
</g>
</svg>
