<?xml version="1.0" encoding="utf-8"?>
<!-- Generator: Adobe Illustrator 18.1.1, SVG Export Plug-In . SVG Version: 6.00 Build 0)  -->
<!DOCTYPE svg PUBLIC "-//W3C//DTD SVG 1.1//EN" "http://www.w3.org/Graphics/SVG/1.1/DTD/svg11.dtd">
<svg version="1.1" id="Layer_1" xmlns="http://www.w3.org/2000/svg" xmlns:xlink="http://www.w3.org/1999/xlink" x="0px" y="0px"
	 viewBox="0 0 56 49.5" enable-background="new 0 0 56 49.5" xml:space="preserve">
<g id="_x37_89-map-location_x40_2x.png">
	<g>
		<path d="M36,17.5c0-4.4-3.6-8-8-8s-8,3.6-8,8c0,4.4,3.6,8,8,8S36,21.9,36,17.5z M22,17.5c0-3.3,2.7-6,6-6c3.3,0,6,2.7,6,6
			c0,3.3-2.7,6-6,6C24.7,23.5,22,20.8,22,17.5z M44,17.5c0-8.8-7.2-16-16-16c-8.8,0-16,7.2-16,16c0,10,16,26,16,26S44,27.5,44,17.5z
			 M28,3.5c7.7,0,14,6.3,14,14c0,8-14,23-14,23s-14-15-14-23C14,9.7,20.3,3.5,28,3.5z M55.9,48L55.9,48l-10-18l0,0
			c-0.2-0.3-0.5-0.5-0.9-0.5h-2c-0.6,0-1,0.4-1,1c0,0.6,0.4,1,1,1h1.4l8.9,16H2.7l8.9-16H13c0.6,0,1-0.4,1-1c0-0.6-0.4-1-1-1h-2
			c-0.4,0-0.7,0.2-0.9,0.5l0,0l-10,18l0,0C0.1,48.1,0,48.3,0,48.5c0,0.6,0.4,1,1,1h54c0.6,0,1-0.4,1-1C56,48.3,55.9,48.1,55.9,48z"
			/>
	</g>
</g>
</svg>
