<?xml version="1.0" encoding="utf-8"?>
<!-- Generator: Adobe Illustrator 18.1.1, SVG Export Plug-In . SVG Version: 6.00 Build 0)  -->
<!DOCTYPE svg PUBLIC "-//W3C//DTD SVG 1.1//EN" "http://www.w3.org/Graphics/SVG/1.1/DTD/svg11.dtd">
<svg version="1.1" id="Layer_1" xmlns="http://www.w3.org/2000/svg" xmlns:xlink="http://www.w3.org/1999/xlink" x="0px" y="0px"
	 viewBox="0 0 59 57.4" enable-background="new 0 0 59 57.4" xml:space="preserve">
<g id="_x37_76-recycle_x40_2x.png">
	<g>
		<path d="M56.8,30.7l-6-11.5c0,0,0,0,0,0c-0.3-0.5-0.9-0.7-1.3-0.4l0,0L44.8,21l4.6-11.3c0.1-0.1,0.1-0.3,0.1-0.4c0-0.6-0.4-1-1-1
			c-0.4,0-0.8,0.3-0.9,0.6l0,0l-1.3,3.3c-0.7-1.2-1.6-2.8-2.6-4.8c-2.1-4.2-4.3-5.5-8.9-5.5h-11c-4.5,0-6.7,3.3-6.9,3.5l-6.9,11l0,0
			c-0.3,0.5-0.2,1.1,0.2,1.4c0,0,0,0,0.1,0l4.5,3.2L2.7,22.6l0,0c-0.5,0.1-0.9,0.5-0.9,1c0,0.6,0.4,1,1,1c0,0,0.1,0,0.1,0l0,0
			l3.3-0.5c-0.7,1.2-1.8,2.9-2.9,4.8c-2.2,3.8-2.6,6.4-0.7,10h0L8.6,49c2.2,3.9,6.5,3.9,6.5,3.9l13.5,0c0.6,0,1-0.4,1-1v-4.5
			l7.6,9.7c0,0,0,0,0,0l0,0l0,0c0.2,0.2,0.4,0.3,0.7,0.3c0.6,0,1-0.4,1-1c0-0.2-0.1-0.4-0.2-0.6l0,0l-2.3-2.9h5.2c4.6,0,7-1,9.3-4.9
			l0,0l5.5-9.6C58.7,34.5,56.9,30.9,56.8,30.7z M35.2,3.9c3.5,0.1,5,1.1,6.6,4.4c1.5,3,2.9,5.3,3.4,6.2l-2.1,5.3l-6.4-0.5l-5.9-8.7
			L35.2,3.9z M12.1,16.6l6.5-10.1c0,0,1.7-2.6,5.2-2.6H33L20.5,22.4L12.1,16.6z M8.3,44.5l-1.2-2l0,0l-2.1-3.6h0l-0.3-0.4
			c-0.1-0.1-0.1-0.2-0.1-0.2l-0.4-0.6l0,0c-1.4-2.8-1-4.6,0.9-7.7c1.6-2.8,3.3-5.1,3.9-6.1l5.7-0.8l2.8,5.9L12.2,38l0,0l-0.5,0.9
			h-0.1V39L8.3,44.5z M27.6,50.9l-12.4,0c0,0-3.1,0-4.8-2.9l-0.8-1.5l3.3-5.6h14.8V50.9z M28.6,38.9H13.9l0.4-0.6l4.3-7.3l1.3,2.6
			l0,0c0.2,0.3,0.5,0.5,0.9,0.5c0.6,0,1-0.4,1-1c0-0.1,0-0.3-0.1-0.4l0,0l0,0c0,0,0,0,0,0l-5-10.5l3.6,2.5l0,0
			c0.5,0.3,1.1,0.2,1.4-0.2l0,0l8-12.1l4.5,6.7l-2.8-0.2l0,0c0,0-0.1,0-0.1,0c-0.6,0-1,0.4-1,1c0,0.6,0.4,1,1,1c0,0,0,0,0,0l4.3,0.3
			l0,0l7.3,0.6l-4.5,2.1l0,0c-0.5,0.2-0.7,0.9-0.4,1.3l0,0l6.8,13.6l-8.4,0l1.8-2.6l0,0c0.1-0.2,0.2-0.4,0.2-0.6c0-0.6-0.4-1-1-1
			c-0.4,0-0.7,0.2-0.8,0.5l0,0l-2.6,3.7h0L29.6,45v-5.2C29.6,39.3,29.1,38.9,28.6,38.9z M50.1,45.4L50.1,45.4l-1.4,2.4l0,0
			c-1.7,2.6-3.5,3.1-7.1,3.1c-3.2,0-5.6,0-6.7,0l-3.6-4.7l3.7-5.3h17.8L50.1,45.4z M54.7,37.4l-0.8,1.5h-6.9l-6.7-13.6l9.3-4.3
			l5.5,10.7C55.1,31.7,56.4,34.5,54.7,37.4z"/>
	</g>
</g>
</svg>
