<?xml version="1.0" encoding="utf-8"?>
<!-- Generator: Adobe Illustrator 18.1.1, SVG Export Plug-In . SVG Version: 6.00 Build 0)  -->
<!DOCTYPE svg PUBLIC "-//W3C//DTD SVG 1.1//EN" "http://www.w3.org/Graphics/SVG/1.1/DTD/svg11.dtd">
<svg version="1.1" id="Layer_1" xmlns="http://www.w3.org/2000/svg" xmlns:xlink="http://www.w3.org/1999/xlink" x="0px" y="0px"
	 viewBox="0 0 59.7 60.4" enable-background="new 0 0 59.7 60.4" xml:space="preserve">
<g id="_x37_54-scale_x40_2x.png">
	<g>
		<path d="M58.2,37.6L58.2,37.6l-8.5-22.7l-0.5-2c-7.9-4.7-11-3.1-15.7-0.6c-0.1,0-0.2,0.1-0.2,0.1V5.9c0-1.7-1.3-3-3-3
			c-1.5,0-2.7,1.1-3,2.6c-0.1-0.1-0.2-0.1-0.3-0.2c-4.7-2.5-7.8-4.1-15.7,0.6l-0.4,1.8L2.3,30.6l0,0c0,0.1-0.1,0.2-0.1,0.3
			c0,0.2,0,0.3,0.1,0.4c0.6,3.7,4.8,6.6,9.9,6.6s9.3-2.9,9.9-6.6c0.1-0.1,0.1-0.3,0.1-0.4c0-0.1,0-0.2-0.1-0.3l0,0L13.4,7.1
			c6.1-3.3,8.4-2.2,12.7,0.1c0.4,0.2,0.8,0.4,1.2,0.6v45.1h-7c-2.2,0-4,1.8-4,4v2h28v-2c0-2.2-1.8-4-4-4h-7V14.8
			c0.4-0.2,0.8-0.4,1.1-0.6c4.3-2.3,6.6-3.5,12.7-0.1l-8.8,23.4l0,0c0,0.1-0.1,0.2-0.1,0.3c0,0.2,0,0.3,0.1,0.4
			c0.6,3.7,4.8,6.6,9.9,6.6s9.3-2.9,9.9-6.6c0.1-0.1,0.1-0.3,0.1-0.4C58.2,37.8,58.2,37.7,58.2,37.6z M12.2,35.9
			c-3.7,0-6.7-1.7-7.7-4h15.4C19,34.2,15.9,35.9,12.2,35.9z M19.8,29.9H4.7l7.6-20.2L19.8,29.9z M29.2,5.9c0-0.6,0.4-1,1-1
			s1,0.4,1,1v47h-2V5.9z M40.2,54.9c1.1,0,2,0.9,2,2h-24c0-1.1,0.9-2,2-2H40.2z M48.2,16.8l7.6,20.2H40.7L48.2,16.8z M48.2,42.9
			c-3.7,0-6.7-1.7-7.7-4h15.4C55,41.2,51.9,42.9,48.2,42.9z"/>
	</g>
</g>
</svg>
